<svg xmlns="http://www.w3.org/2000/svg" width="32" height="32" viewBox="0 0 8.467 8.467" id="download"><g transform="translate(-51.594 -50.8)"><path fill="#0087d1" style="line-height:normal;font-variant-ligatures:normal;font-variant-position:normal;font-variant-caps:normal;font-variant-numeric:normal;font-variant-alternates:normal;font-feature-settings:normal;text-indent:0;text-align:start;text-decoration-line:none;text-decoration-style:solid;text-decoration-color:#000;text-transform:none;text-orientation:mixed;shape-padding:0;isolation:auto;mix-blend-mode:normal" d="m 52.386465,55.826048 a 0.26460981,0.26460981 0 0 0 -0.263549,0.265618 V 58.4724 a 0.26460981,0.26460981 0 0 0 0.263549,0.266134 H 59.2677 A 0.26460981,0.26460981 0 0 0 59.531249,58.4724 V 56.091666 A 0.26460981,0.26460981 0 0 0 59.2677,55.826048 h -1.588018 a 0.26460981,0.26460981 0 0 0 -0.265615,0.265618 v 1.058849 h -3.173968 v -1.058849 a 0.26460981,0.26460981 0 0 0 -0.265616,-0.265618 z" color="#000" font-family="sans-serif" font-weight="400" overflow="visible" paint-order="markers fill stroke"></path><path fill="#c8d4dd" style="line-height:normal;font-variant-ligatures:normal;font-variant-position:normal;font-variant-caps:normal;font-variant-numeric:normal;font-variant-alternates:normal;font-feature-settings:normal;text-indent:0;text-align:start;text-decoration-line:none;text-decoration-style:solid;text-decoration-color:#000;text-transform:none;text-orientation:mixed;shape-padding:0;isolation:auto;mix-blend-mode:normal" d="m 54.734126,51.330201 a 0.26460981,0.26460981 0 0 0 -0.238228,0.263548 l 0.0078,2.117183 h -0.529167 a 0.26460981,0.26460981 0 0 0 -0.198956,0.4377 l 1.851568,2.117183 a 0.26460981,0.26460981 0 0 0 0.398425,0 l 1.853118,-2.117183 a 0.26460981,0.26460981 0 0 0 -0.198956,-0.4377 h -0.531233 l -0.0057,-2.117183 a 0.26460981,0.26460981 0 0 0 -0.265618,-0.263548 h -2.115632 a 0.26460981,0.26460981 0 0 0 -0.02739,0 z" color="#000" font-family="sans-serif" font-weight="400" overflow="visible"></path><path fill="#0178be" style="line-height:normal;font-variant-ligatures:normal;font-variant-position:normal;font-variant-caps:normal;font-variant-numeric:normal;font-variant-alternates:normal;font-feature-settings:normal;text-indent:0;text-align:start;text-decoration-line:none;text-decoration-style:solid;text-decoration-color:#000;text-transform:none;text-orientation:mixed;shape-padding:0;isolation:auto;mix-blend-mode:normal" d="m 55.827083,57.150515 v 1.588019 H 59.2677 A 0.26460981,0.26460981 0 0 0 59.531249,58.4724 V 56.091666 A 0.26460981,0.26460981 0 0 0 59.2677,55.826048 h -1.588018 a 0.26460981,0.26460981 0 0 0 -0.265615,0.265618 v 1.058849 z" color="#000" font-family="sans-serif" font-weight="400" overflow="visible" paint-order="markers fill stroke"></path><path fill="#aebdc0" style="line-height:normal;font-variant-ligatures:normal;font-variant-position:normal;font-variant-caps:normal;font-variant-numeric:normal;font-variant-alternates:normal;font-feature-settings:normal;text-indent:0;text-align:start;text-decoration-line:none;text-decoration-style:solid;text-decoration-color:#000;text-transform:none;text-orientation:mixed;shape-padding:0;isolation:auto;mix-blend-mode:normal" d="m 55.827083,51.330201 v 5.025532 a 0.26460981,0.26460981 0 0 0 0.198437,-0.08992 l 1.853118,-2.117183 a 0.26460981,0.26460981 0 0 0 -0.198956,-0.4377 h -0.531233 l -0.0057,-2.117183 a 0.26460981,0.26460981 0 0 0 -0.265618,-0.263548 z" color="#000" font-family="sans-serif" font-weight="400" overflow="visible"></path></g></svg>